# xmcd CD database file
#
# Track frame offsets:
#	150
#	22350
#	45975
#	67725
#	88500
#	109575
#	127575
#	147300
#	166425
#	186450
#
# Disc length: 2750 seconds
#
# Revision: 0
# Processed by: cddbd v1.5PL3 Copyright (c) Steve Scherf et al.
# Submitted via: CDex 1.50
#
DISCID=800abc0a
DTITLE=小堺一機 - ウィズ K
DYEAR=1995
DGENRE=Japanese Pop
TTITLE0=虹の果てまで
TTITLE1=さめて見る夢
TTITLE2=退屈しない恋の条件
TTITLE3=風の道
TTITLE4=陽ざしの記憶
TTITLE5=いつまでも昨日じゃなく
TTITLE6=今夜だけ少年に帰りたい
TTITLE7=さよならゲーム
TTITLE8=いつか　もしか　まさか
TTITLE9=そこに居るから
EXTD=YEAR: 1995
EXTT0=
EXTT1=
EXTT2=
EXTT3=
EXTT4=
EXTT5=
EXTT6=
EXTT7=
EXTT8=
EXTT9=
PLAYORDER=
